# This file uses meters as units for non-parametric coordinates.

mtllib Foundation_Small.mtl
v -264.635380 -250.000002 264.635494
v 264.635380 -250.000002 264.635494
v -264.635380 -17.450439 264.635494
v 264.635380 -17.450439 264.635494
v -264.635380 -17.450439 -264.635494
v 264.635380 -17.450439 -264.635494
v -264.635380 -250.000002 -264.635494
v 264.635380 -250.000002 -264.635494
v 0.000228 -250.000002 264.635494
v 0.000228 -17.450439 264.635494
v 0.000228 -17.450439 -264.635494
v 0.000228 -250.000002 -264.635494
vt 0.800035 0.908580
vt 0.800035 0.455742
vt 0.999002 0.455742
vt 0.999002 0.908580
vt 0.596929 0.908580
vt 0.596929 0.455742
vt 0.795896 0.455742
vt 0.795896 0.908580
vt 0.000998 0.000908
vt 0.227417 0.000908
vt 0.227417 0.453746
vt 0.000998 0.453746
vt 0.453836 0.000908
vt 0.453836 0.453746
vt 0.459193 0.000908
vt 0.685612 0.000908
vt 0.685612 0.453746
vt 0.459193 0.453746
vt 0.912031 0.000908
vt 0.912031 0.453746
vt 0.393823 0.908580
vt 0.393823 0.682160
vt 0.592789 0.682160
vt 0.592789 0.908580
vt 0.393823 0.455742
vt 0.592789 0.455742
vt 0.190717 0.908580
vt 0.190717 0.682160
vt 0.389683 0.682160
vt 0.389683 0.908580
vt 0.190717 0.455742
vt 0.389683 0.455742
vn 0.000000 0.000000 1.000000
vn 0.000000 0.000000 1.000000
vn 0.000000 0.000000 1.000000
vn 0.000000 0.000000 1.000000
vn 0.000000 1.000000 0.000000
vn 0.000000 1.000000 0.000000
vn 0.000000 1.000000 0.000000
vn 0.000000 1.000000 0.000000
vn 0.000000 0.000000 -1.000000
vn 0.000000 0.000000 -1.000000
vn 0.000000 0.000000 -1.000000
vn 0.000000 0.000000 -1.000000
vn 0.000000 -1.000000 0.000000
vn 0.000000 -1.000000 0.000000
vn 0.000000 -1.000000 0.000000
vn 0.000000 -1.000000 0.000000
vn 1.000000 0.000000 0.000000
vn 1.000000 0.000000 0.000000
vn 1.000000 0.000000 0.000000
vn 1.000000 0.000000 0.000000
vn -1.000000 0.000000 0.000000
vn -1.000000 0.000000 0.000000
vn -1.000000 0.000000 0.000000
vn -1.000000 0.000000 0.000000
vn 0.000000 0.000000 1.000000
vn 0.000000 0.000000 1.000000
vn 0.000000 1.000000 0.000000
vn 0.000000 1.000000 0.000000
vn 0.000000 0.000000 -1.000000
vn 0.000000 0.000000 -1.000000
vn 0.000000 -1.000000 0.000000
vn 0.000000 -1.000000 0.000000
s 1
g polySurface4655 polySurface3920
usemtl blinn5SG
f 1/21/1 9/22/2 10/23/3 3/24/4
s 2
f 3/9/5 10/10/6 11/11/7 5/12/8
s 3
f 5/27/9 11/28/10 12/29/11 7/30/12
s 4
f 7/15/13 12/16/14 9/17/15 1/18/16
s off
f 2/1/17 8/2/18 6/3/19 4/4/20
f 7/5/21 1/6/22 3/7/23 5/8/24
s 1
f 9/22/2 2/25/25 4/26/26 10/23/3
s 2
f 11/11/7 10/10/6 4/13/27 6/14/28
s 3
f 12/29/11 11/28/10 6/31/29 8/32/30
s 4
f 9/17/15 12/16/14 8/19/31 2/20/32
